PathFileType  4	(X/Y/Z) C:\Users\antoi\Documents\MyRepositories\mobilecap\ResultsAnalysis
DataRate	CameraRate	NumFrames	NumMarkers	Units	OrigDataRate	OrigDataStartFrame	OrigNumFrames
100.0	100.0	4	51	mm	100.0	64	253
Frame#	Time	r_knee			r_shank_antsup			r_ankle			r_calc			r_5meta			r_toe			L_knee			L_shank_antsup			L_ankle			L_calc			L_5meta			L_toe			r_sh2			r_sh3			r_sh4			L_sh2			L_sh3			r_thigh1			r_thigh2			r_thigh3			r_thigh4			r_thigh5			L_thigh1			L_thigh2			L_thigh3			L_thigh4			r.ASIS			r.PSIS			L.ASIS			L.PSIS			C7			R_Shoulder			L_Shoulder			R_Sternum			L_Sternum			R_humerus			R_elbow_med			R_elbow_lat			R_forearm			R_wrist_radius			R_wrist_ulna			L_humerus			L_elbow_med			L_elbow_lat			L_forearm			L_wrist_radius			L_wrist_ulna			R_HJC			L_HJC			R_HJC_reg			L_HJC_reg			
		X1	Y1	Z1	X2	Y2	Z2	X3	Y3	Z3	X4	Y4	Z4	X5	Y5	Z5	X6	Y6	Z6	X7	Y7	Z7	X8	Y8	Z8	X9	Y9	Z9	X10	Y10	Z10	X11	Y11	Z11	X12	Y12	Z12	X13	Y13	Z13	X14	Y14	Z14	X15	Y15	Z15	X16	Y16	Z16	X17	Y17	Z17	X18	Y18	Z18	X19	Y19	Z19	X20	Y20	Z20	X21	Y21	Z21	X22	Y22	Z22	X23	Y23	Z23	X24	Y24	Z24	X25	Y25	Z25	X26	Y26	Z26	X27	Y27	Z27	X28	Y28	Z28	X29	Y29	Z29	X30	Y30	Z30	X31	Y31	Z31	X32	Y32	Z32	X33	Y33	Z33	X34	Y34	Z34	X35	Y35	Z35	X36	Y36	Z36	X37	Y37	Z37	X38	Y38	Z38	X39	Y39	Z39	X40	Y40	Z40	X41	Y41	Z41	X42	Y42	Z42	X43	Y43	Z43	X44	Y44	Z44	X45	Y45	Z45	X46	Y46	Z46	X47	Y47	Z47	X48	Y48	Z48	X49	Y49	Z49	X50	Y50	Z50	X51	Y51	Z51	

64	0.63000000	-1004.42848	734.81049	-469.89228	-1009.30602	662.84978	-444.45930	-1171.29083	400.92247	-462.91535	-1244.42146	363.21140	-498.37228	-1072.19263	353.53221	-437.18137	-1030.85635	371.82421	-494.87009	-1009.42620	731.93638	-731.77095	-999.69745	655.67391	-735.89658	-1173.01896	401.93369	-712.75493	-1244.68606	365.48799	-663.90094	-1085.22900	351.22039	-743.54305	-1033.90031	372.83268	-689.89783	-1060.12337	561.77185	-434.88926	-1077.10156	695.27391	-447.63394	-1135.70063	595.15144	-439.46089	-1074.66142	701.93430	-755.88373	-1126.49908	591.47606	-758.29950	-1030.41057	1045.78223	-458.23972	-987.92107	941.20779	-462.58988	-1018.00477	903.59432	-414.39097	-1108.93309	1013.89907	-383.45204	-1074.38770	903.44478	-404.08154	-1042.36373	1019.35068	-740.69052	-990.75724	890.93178	-738.84891	-1151.07041	980.16544	-759.33721	-1091.42281	851.77062	-754.50287	-1047.17209	1148.39880	-452.28403	-1214.65527	1226.49025	-518.16389	-1055.58891	1137.52134	-704.69722	-1225.02666	1219.01627	-625.43117	-941.29432	1610.15557	-590.30391	-893.32084	1527.03930	-443.94560	-894.05695	1526.59820	-749.99242	-867.74788	1483.77881	-580.30275	-866.95199	1484.35582	-616.79059	-951.66843	1300.67546	-357.66847	-1028.84892	1208.59173	-401.29786	-997.49650	1224.76830	-334.61493	-926.37030	1123.81629	-342.67777	-873.52464	1021.05422	-363.16251	-908.91203	1000.16137	-346.71299	-903.44671	1398.42863	-803.03829	-1025.61643	1209.97807	-797.25854	-1002.69685	1218.42183	-855.27233	-944.30881	1120.39821	-859.75212	-920.59455	998.27368	-836.57866	-949.37203	986.24289	-857.78940	-1135.12636	1099.53161	-471.78694	-1140.20788	1092.71222	-671.89856	-1130.47509	1097.69691	-476.32828	-1146.49092	1086.15299	-641.99764	
65	0.64000000	-997.95134	731.62779	-470.76871	-1003.08483	659.71342	-445.28979	-1170.64689	401.09895	-463.10023	-1244.19433	363.51338	-498.40201	-1072.04300	353.35202	-437.07068	-1030.62219	371.36854	-494.83826	-1003.41189	729.08393	-731.64430	-994.27459	652.34663	-735.88044	-1172.49709	402.02632	-712.83549	-1244.57023	365.56379	-663.80042	-1085.10198	350.98099	-743.55050	-1033.80190	372.43583	-689.96426	-1056.08760	559.59759	-435.60128	-1070.24959	693.51056	-448.82890	-1130.99393	594.69994	-440.18234	-1068.43597	699.74042	-756.16183	-1122.22053	590.31726	-758.52589	-1027.56086	1042.56478	-459.08827	-984.00338	938.34370	-462.77461	-1013.39519	900.44603	-415.18305	-1106.25763	1008.91451	-384.13305	-1069.93437	899.16673	-404.69277	-1038.94409	1016.59686	-739.72320	-985.93800	888.49633	-738.07612	-1146.96088	976.25280	-759.67365	-1086.13567	848.34523	-754.74489	-1044.99949	1142.95244	-452.26558	-1212.52832	1221.49304	-518.27862	-1053.26575	1133.46316	-705.37378	-1222.63253	1214.43229	-625.45830	-936.12642	1603.50397	-591.19091	-889.03196	1520.30602	-445.07048	-888.97533	1519.14330	-750.56589	-862.22384	1475.70786	-577.24816	-862.44675	1476.59516	-617.31889	-943.76844	1293.69118	-358.69481	-1019.98489	1200.07811	-401.50443	-988.40558	1217.08903	-334.76474	-915.60399	1117.30081	-343.60772	-860.98524	1015.90636	-364.51355	-895.79140	993.87685	-348.20080	-896.52378	1391.35821	-803.02236	-1016.05748	1201.31106	-799.64935	-992.43040	1210.16559	-857.79082	-932.03903	1113.29955	-860.69667	-906.03413	991.77522	-836.90828	-934.23302	978.82568	-858.33252	-1132.97264	1094.21382	-472.43039	-1137.86259	1088.45588	-672.57913	-1128.55706	1092.44928	-476.78935	-1144.22161	1081.50295	-642.95348	
66	0.65000000	-990.97905	728.19053	-471.76885	-997.29266	656.35350	-445.83571	-1169.92502	401.24027	-463.31430	-1243.97525	363.79984	-498.47246	-1071.79377	353.18329	-436.89310	-1030.33436	370.95943	-494.80414	-997.27304	725.92952	-731.52786	-989.00706	648.78695	-735.97015	-1172.09229	402.05182	-712.87623	-1244.47819	365.56950	-663.70495	-1085.09544	350.59829	-743.22106	-1033.69232	372.14066	-689.92132	-1052.26676	557.36336	-436.08980	-1063.61186	691.56254	-449.92293	-1126.47943	594.06840	-441.01362	-1062.21979	697.40141	-756.28825	-1118.04675	589.12065	-758.58851	-1023.91730	1038.82764	-459.17086	-979.74492	935.20125	-462.84493	-1008.48206	897.13877	-415.56021	-1103.11057	1003.84050	-384.46760	-1065.12782	894.68440	-405.14200	-1035.42210	1013.44343	-738.89851	-981.17207	885.76987	-737.85493	-1142.87738	972.00788	-760.00376	-1080.84661	844.58625	-754.91683	-1042.48891	1137.31953	-451.97242	-1210.06344	1216.25416	-518.54096	-1050.78391	1129.49204	-706.21888	-1219.91746	1209.75110	-625.64077	-931.28664	1597.16177	-591.96862	-884.93411	1513.87266	-445.87177	-884.27412	1512.20555	-750.91345	-858.00325	1468.55578	-578.03467	-858.16728	1469.35507	-617.67910	-936.09042	1287.21336	-359.30595	-1010.77811	1192.14117	-401.61826	-979.35710	1209.76249	-334.92549	-904.26588	1111.59407	-344.55975	-847.29110	1011.85752	-366.06132	-881.33452	988.66332	-349.43493	-889.84268	1384.92273	-803.15940	-1006.20133	1193.11071	-802.10412	-981.77016	1202.21318	-859.83731	-918.99658	1106.89668	-861.86730	-889.75716	986.33944	-837.38105	-917.35182	972.44529	-859.32996	-1130.53653	1088.71253	-473.18700	-1135.16948	1084.16200	-673.37382	-1126.37332	1086.85202	-477.09300	-1141.73647	1076.71493	-644.05327	
67	0.66000000	-983.98999	724.41714	-472.52231	-991.71243	652.87784	-446.21836	-1169.28664	401.59274	-463.15604	-1243.79770	364.02965	-498.56390	-1071.56278	353.01108	-436.66300	-1030.04443	370.52414	-494.78528	-991.18786	722.39043	-731.52915	-983.80642	645.02402	-736.16701	-1171.76181	402.01839	-712.91777	-1244.39886	365.60224	-663.68599	-1085.15806	350.13976	-742.69479	-1033.53639	371.87941	-689.82288	-1048.60700	555.00621	-436.30022	-1057.17954	689.38446	-450.86605	-1122.01817	593.23912	-441.75845	-1056.08059	694.90247	-756.39317	-1113.92479	587.66271	-758.62260	-1020.46360	1034.68268	-458.17779	-975.11658	931.60425	-462.89624	-1003.54629	893.24286	-415.49368	-1099.55617	998.79820	-384.58650	-1060.20366	890.09742	-405.44146	-1031.84713	1009.77949	-738.64535	-976.24343	883.01390	-738.88066	-1138.84476	967.43209	-760.22617	-1075.51160	840.49453	-755.06637	-1039.59659	1131.71945	-451.50966	-1207.22657	1210.92688	-518.96558	-1047.97096	1125.21050	-706.57012	-1216.96017	1204.96695	-625.97593	-926.67776	1591.27976	-592.62579	-881.07851	1507.89400	-446.32004	-880.03782	1505.71889	-751.02580	-854.07578	1462.17167	-579.08964	-854.04982	1462.76912	-617.94804	-928.77662	1281.25945	-359.51978	-1001.91195	1184.60489	-401.22964	-970.33230	1202.85028	-334.89933	-892.34750	1106.84450	-345.51725	-832.37449	1009.27987	-367.62719	-865.50260	984.97143	-350.35248	-883.43325	1379.17062	-803.52950	-995.69345	1184.95332	-804.39005	-970.85938	1194.65657	-861.64131	-905.16712	1101.36149	-863.22133	-871.71098	982.13916	-838.23509	-898.54891	967.31742	-860.78499	-1127.84465	1083.27238	-473.71438	-1132.08870	1079.58568	-673.92800	-1123.68209	1081.19538	-477.07723	-1138.92192	1071.86291	-644.61146	
